<svg width="17" height="15" viewBox="0 0 17 15" fill="none" xmlns="http://www.w3.org/2000/svg">
<path fill-rule="evenodd" clip-rule="evenodd" d="M11.9645 0.262563L15.9419 4.24004C16.186 4.48412 16.186 4.87984 15.9419 5.12392L11.9645 9.1014C11.7204 9.34548 11.3247 9.34548 11.0806 9.1014C10.8365 8.85732 10.8365 8.46159 11.0806 8.21751L13.9911 5.30698L8.5 5.30698C8.15482 5.30698 7.875 5.02716 7.875 4.68198C7.875 4.3368 8.15482 4.05698 8.5 4.05698L13.9911 4.05698L11.0806 1.14645C10.8365 0.902369 10.8365 0.506641 11.0806 0.262563C11.3247 0.0184854 11.7204 0.0184854 11.9645 0.262563Z" fill="#434343"/>
<path fill-rule="evenodd" clip-rule="evenodd" d="M5.03553 14.1014L1.05806 10.1239C0.81398 9.87984 0.81398 9.48412 1.05806 9.24004L5.03553 5.26256C5.27961 5.01849 5.67534 5.01849 5.91942 5.26256C6.1635 5.50664 6.1635 5.90237 5.91942 6.14645L3.00888 9.05698H8.5C8.84518 9.05698 9.125 9.3368 9.125 9.68198C9.125 10.0272 8.84518 10.307 8.5 10.307H3.00888L5.91942 13.2175C6.1635 13.4616 6.1635 13.8573 5.91942 14.1014C5.67534 14.3455 5.27961 14.3455 5.03553 14.1014Z" fill="#434343"/>
</svg>
