<svg width="16" height="16" viewBox="0 0 16 16" fill="none" xmlns="http://www.w3.org/2000/svg">
<path fill-rule="evenodd" clip-rule="evenodd" d="M9.7182 0.883779C9.4757 1.04964 9.14448 1.0096 8.9493 0.792269L8.43472 0.197458C8.38172 0.135676 8.31528 0.0859518 8.24015 0.0518229C8.16501 0.017694 8.08301 0 8 0C7.91698 0 7.83499 0.017694 7.75985 0.0518229C7.68471 0.0859518 7.61827 0.135676 7.56527 0.197458L7.05069 0.792269C6.86142 1.0096 6.5302 1.05536 6.2877 0.889498L6.2463 0.860902C5.77313 0.534899 5.158 1.02676 5.4005 1.53578L6.84368 3.1372H6.86176C6.90191 3.12969 6.94332 3.12576 6.98563 3.12576H9.02027C9.05911 3.12576 9.0972 3.12908 9.13425 3.13543L10.564 1.55294C10.8065 1.04964 10.1914 0.557777 9.7182 0.883779ZM6.71426 4.33824C6.7971 4.37496 6.88903 4.39546 6.98563 4.39546H9.02027C9.11686 4.39546 9.20879 4.37496 9.29163 4.33824C12.544 4.92304 15.0052 7.68083 15 10.9956C15 13.758 12.6814 16 9.82467 16H6.17532C3.31855 16 1 13.758 1 10.9956C1 7.68083 3.46183 4.92304 6.71426 4.33824ZM8.04435 9.92034H8.00295C7.57118 9.92034 7.2163 9.57718 7.2163 9.15967C7.2163 8.74216 7.57118 8.399 8.00295 8.399C8.43472 8.399 8.7896 8.74216 8.7896 9.15967C8.7896 9.38844 8.97887 9.57146 9.21545 9.57146C9.45204 9.57146 9.64131 9.38844 9.64131 9.15967C9.64131 8.42759 9.12673 7.81562 8.4288 7.6326V6.99204C8.4288 6.76326 8.23954 6.58025 8.00295 6.58025C7.76636 6.58025 7.57709 6.76326 7.57709 6.99204V7.6326C6.87916 7.81562 6.36459 8.42759 6.36459 9.15967C6.3652 9.57126 6.53174 9.9664 6.82883 10.2612C7.12592 10.5559 7.53014 10.727 7.95563 10.7382H7.99703C8.4288 10.7382 8.78368 11.0814 8.78368 11.4989C8.78368 11.9164 8.4288 12.2596 7.99703 12.2596C7.56526 12.2596 7.2163 11.9221 7.2163 11.4989C7.2163 11.2701 7.02703 11.0871 6.79044 11.0871C6.55386 11.0871 6.36459 11.2701 6.36459 11.4989C6.36511 11.8469 6.48416 12.185 6.70332 12.461C6.92248 12.7371 7.22956 12.9356 7.57709 13.0259V13.6665C7.57709 13.8953 7.76636 14.0783 8.00295 14.0783C8.23954 14.0783 8.4288 13.8953 8.4288 13.6665V13.0259C9.12673 12.8429 9.64131 12.231 9.64131 11.4989C9.64131 10.641 8.93155 9.94322 8.04435 9.92034Z" fill="white"/>
</svg>
