<svg width="16" height="16" viewBox="0 0 16 16" fill="none" xmlns="http://www.w3.org/2000/svg">
<path fill-rule="evenodd" clip-rule="evenodd" d="M4 2.58806C4 1.90166 4.28973 1.24338 4.80546 0.758025C5.32118 0.27267 6.02065 0 6.75 0H9.25C9.97935 0 10.6788 0.27267 11.1945 0.758025C11.7103 1.24338 12 1.90166 12 2.58806V3.00497C12.572 3.05673 13.14 3.11979 13.706 3.19319C15.053 3.37106 16 4.47028 16 5.71255V8.97727C16 10.037 15.306 11.0392 14.17 11.3677C12.218 11.9314 10.146 12.2345 8 12.2345C5.854 12.2345 3.781 11.9314 1.83 11.3677C0.694 11.0392 0 10.037 0 8.97727V5.71255C0 4.46934 0.947 3.37012 2.294 3.19414C2.8612 3.11989 3.42999 3.05682 4 3.00497V2.58806ZM10.5 2.58806V2.89392C8.83484 2.79962 7.16516 2.79962 5.5 2.89392V2.58806C5.5 1.93869 6.06 1.41167 6.75 1.41167H9.25C9.94 1.41167 10.5 1.93869 10.5 2.58806ZM8 8.47001C7.73478 8.47001 7.48043 8.56916 7.29289 8.74566C7.10536 8.92215 7 9.16152 7 9.41112V9.42053C7 9.67013 7.10536 9.90951 7.29289 10.086C7.48043 10.2625 7.73478 10.3616 8 10.3616H8.01C8.27522 10.3616 8.52957 10.2625 8.71711 10.086C8.90464 9.90951 9.01 9.67013 9.01 9.42053V9.41112C9.01 9.16152 8.90464 8.92215 8.71711 8.74566C8.52957 8.56916 8.27522 8.47001 8.01 8.47001H8Z" fill="white"/>
<path d="M1 13.2273V12.5836C1.126 12.6335 1.255 12.6777 1.39 12.7173C3.482 13.3214 5.703 13.6461 8 13.6461C10.297 13.6461 12.518 13.3214 14.61 12.7173C14.745 12.6787 14.874 12.6335 15 12.5836V13.2273C15 14.495 14.015 15.6084 12.637 15.7552C9.5554 16.0816 6.4446 16.0816 3.363 15.7552C1.985 15.6084 1 14.495 1 13.2273Z" fill="white"/>
</svg>
