<svg width="16" height="16" viewBox="0 0 16 16" fill="none" xmlns="http://www.w3.org/2000/svg">
<path fill-rule="evenodd" clip-rule="evenodd" d="M6.4 1H9.6C12.6168 1 14.1256 1 15.0624 2.0255C15.7376 2.76312 15.9264 3.82538 15.9792 5.59375H0.0208C0.0736 3.82538 0.2624 2.76312 0.9376 2.0255C1.8744 1 3.3832 1 6.4 1ZM9.6 15H6.4C3.3832 15 1.8744 15 0.9376 13.9745C-9.53674e-08 12.9499 0 11.2996 0 8C0 7.61325 7.46921e-08 7.24925 0.00160007 6.90625H15.9984C16 7.24925 16 7.61325 16 8C16 11.2996 16 12.9499 15.0624 13.9745C14.1256 15 12.6168 15 9.6 15ZM3.2 10.8438C3.04087 10.8438 2.88826 10.9129 2.77574 11.036C2.66321 11.159 2.6 11.326 2.6 11.5C2.6 11.674 2.66321 11.841 2.77574 11.964C2.88826 12.0871 3.04087 12.1562 3.2 12.1562H6.4C6.55913 12.1562 6.71174 12.0871 6.82426 11.964C6.93679 11.841 7 11.674 7 11.5C7 11.326 6.93679 11.159 6.82426 11.036C6.71174 10.9129 6.55913 10.8438 6.4 10.8438H3.2ZM8.4 10.8438C8.24087 10.8438 8.08826 10.9129 7.97574 11.036C7.86321 11.159 7.8 11.326 7.8 11.5C7.8 11.674 7.86321 11.841 7.97574 11.964C8.08826 12.0871 8.24087 12.1562 8.4 12.1562H9.6C9.75913 12.1562 9.91174 12.0871 10.0243 11.964C10.1368 11.841 10.2 11.674 10.2 11.5C10.2 11.326 10.1368 11.159 10.0243 11.036C9.91174 10.9129 9.75913 10.8438 9.6 10.8438H8.4Z" fill="white"/>
</svg>
