<svg width="16" height="16" viewBox="0 0 16 16" fill="none" xmlns="http://www.w3.org/2000/svg">
<path d="M11.7333 5.37977V5C11.7333 3.29 9.21133 2 5.86667 2C2.522 2 0 3.29 0 5V7.72727C0 9.15159 1.75 10.2834 4.26667 10.6223V11C4.26667 12.71 6.78867 14 10.1333 14C13.478 14 16 12.71 16 11V8.27273C16 6.86136 14.3053 5.72818 11.7333 5.37977ZM3.2 9.28659C1.894 8.91364 1.06667 8.29932 1.06667 7.72727V6.76795C1.61067 7.16205 2.33933 7.47977 3.2 7.69318V9.28659ZM8.53333 7.69318C9.394 7.47977 10.1227 7.16205 10.6667 6.76795V7.72727C10.6667 8.29932 9.83933 8.91364 8.53333 9.28659V7.69318ZM7.46667 12.5593C6.16067 12.1864 5.33333 11.572 5.33333 11V10.7157C5.50867 10.7225 5.686 10.7273 5.86667 10.7273C6.12533 10.7273 6.378 10.7184 6.626 10.7034C6.90151 10.8043 7.18214 10.8899 7.46667 10.9598V12.5593ZM7.46667 9.51705C6.93694 9.59708 6.40215 9.63696 5.86667 9.63636C5.33119 9.63696 4.7964 9.59708 4.26667 9.51705V7.895C4.79719 7.9657 5.33166 8.00077 5.86667 8C6.40167 8.00077 6.93615 7.9657 7.46667 7.895V9.51705ZM11.7333 12.7898C10.6723 12.9489 9.59433 12.9489 8.53333 12.7898V11.1636C9.06368 11.2366 9.59822 11.273 10.1333 11.2727C10.6683 11.2735 11.2028 11.2384 11.7333 11.1677V12.7898ZM14.9333 11C14.9333 11.572 14.106 12.1864 12.8 12.5593V10.9659C13.6607 10.7525 14.3893 10.4348 14.9333 10.0407V11Z" fill="white"/>
</svg>
