<svg width="16" height="16" viewBox="0 0 16 16" fill="none" xmlns="http://www.w3.org/2000/svg">
<path d="M1.5 2C1.10218 2 0.720644 2.15804 0.43934 2.43934C0.158035 2.72064 0 3.10218 0 3.5V10.5C0 10.8978 0.158035 11.2794 0.43934 11.5607C0.720644 11.842 1.10218 12 1.5 12H12.5C12.8978 12 13.2794 11.842 13.5607 11.5607C13.842 11.2794 14 10.8978 14 10.5V3.5C14 3.10218 13.842 2.72064 13.5607 2.43934C13.2794 2.15804 12.8978 2 12.5 2H1.5ZM4 3V4C4 4.53043 3.78929 5.03914 3.41421 5.41421C3.03914 5.78929 2.53043 6 2 6H1V5H2C2.26522 5 2.51957 4.89464 2.70711 4.70711C2.89464 4.51957 3 4.26522 3 4V3H4ZM7 8.75C6.53587 8.75 6.09075 8.56563 5.76256 8.23744C5.43437 7.90925 5.25 7.46413 5.25 7C5.25 6.53587 5.43437 6.09075 5.76256 5.76256C6.09075 5.43437 6.53587 5.25 7 5.25C7.46413 5.25 7.90925 5.43437 8.23744 5.76256C8.56563 6.09075 8.75 6.53587 8.75 7C8.75 7.46413 8.56563 7.90925 8.23744 8.23744C7.90925 8.56563 7.46413 8.75 7 8.75ZM1 9V8H2C2.53043 8 3.03914 8.21071 3.41421 8.58579C3.78929 8.96086 4 9.46957 4 10V11H3V10C3 9.73478 2.89464 9.48043 2.70711 9.29289C2.51957 9.10536 2.26522 9 2 9H1ZM12 9C11.7348 9 11.4804 9.10536 11.2929 9.29289C11.1054 9.48043 11 9.73478 11 10V11H10V10C10 9.46957 10.2107 8.96086 10.5858 8.58579C10.9609 8.21071 11.4696 8 12 8H13V9H12ZM12 5H13V6H12C11.4696 6 10.9609 5.78929 10.5858 5.41421C10.2107 5.03914 10 4.53043 10 4V3H11V4C11 4.26522 11.1054 4.51957 11.2929 4.70711C11.4804 4.89464 11.7348 5 12 5ZM15 10.5C15 11.163 14.7366 11.7989 14.2678 12.2678C13.7989 12.7366 13.163 13 12.5 13H2.085C2.18844 13.2926 2.38008 13.5459 2.63351 13.725C2.88694 13.9041 3.18967 14.0002 3.5 14H12.5C13.4283 14 14.3185 13.6313 14.9749 12.9749C15.6313 12.3185 16 11.4283 16 10.5V5.5C16.0002 5.18967 15.9041 4.88694 15.725 4.63351C15.5459 4.38008 15.2926 4.18844 15 4.085V10.5Z" fill="white"/>
</svg>
