<svg width="16" height="16" viewBox="0 0 16 16" fill="none" xmlns="http://www.w3.org/2000/svg">
<path d="M15.5555 7H14.7361C14.4916 6.375 14.136 5.82188 13.6971 5.35938L14.2222 3H13.3332C12.5165 3 11.7943 3.42188 11.3054 4.07188C11.0943 4.0375 10.8859 4 10.6665 4H7.11076C4.96068 4 3.16894 5.71875 2.75504 8H1.55499C1.14386 8 0.81885 7.57812 0.902187 7.1C0.9633 6.74375 1.26053 6.5 1.58277 6.5H1.61055C1.70222 6.5 1.77722 6.41563 1.77722 6.3125V5.6875C1.77722 5.58437 1.70222 5.5 1.61055 5.5C0.81885 5.5 0.113267 6.1375 0.0132632 7.01875C-0.108964 8.0875 0.629954 9 1.55499 9H2.66614C2.66614 10.6313 3.37173 12.0656 4.44399 12.9781V15.5C4.44399 15.775 4.644 16 4.88845 16H6.6663C6.91076 16 7.11076 15.775 7.11076 15.5V14H10.6665V15.5C10.6665 15.775 10.8665 16 11.1109 16H12.8888C13.1332 16 13.3332 15.775 13.3332 15.5V12.9781C13.661 12.7 13.9527 12.3719 14.2027 12H15.5555C15.8 12 16 11.775 16 11.5V7.5C16 7.225 15.8 7 15.5555 7ZM11.9998 9C11.7554 9 11.5554 8.775 11.5554 8.5C11.5554 8.225 11.7554 8 11.9998 8C12.2443 8 12.4443 8.225 12.4443 8.5C12.4443 8.775 12.2443 9 11.9998 9ZM7.11076 3H10.6665C10.8165 3 10.9637 3.0125 11.1081 3.025C11.1081 3.01562 11.1109 3.00938 11.1109 3C11.1109 1.34375 9.91643 0 8.44415 0C6.97187 0 5.77738 1.34375 5.77738 3C5.77738 3.06562 5.79127 3.12812 5.79404 3.19375C6.21628 3.07187 6.65519 3 7.11076 3Z" fill="white"/>
</svg>
