<svg width="16" height="16" viewBox="0 0 16 16" fill="none" xmlns="http://www.w3.org/2000/svg">
<path fill-rule="evenodd" clip-rule="evenodd" d="M14.727 5.0032C14.6846 5 14.6376 5 14.5882 5H12.6413C11.0468 5 9.6828 6.3024 9.6828 8C9.6828 9.6976 11.0476 11 12.6413 11H14.5882C14.6376 11 14.6846 11 14.7285 10.9968C15.0562 10.9763 15.3656 10.8329 15.599 10.5933C15.8323 10.3537 15.9737 10.0342 15.9969 9.6944C16 9.6464 16 9.5944 16 9.5464V6.4536C16 6.4056 16 6.3536 15.9969 6.3056C15.9737 5.96581 15.8323 5.64635 15.599 5.40673C15.3656 5.16712 15.0562 5.0237 14.7285 5.0032H14.727ZM12.4694 8.8C12.8796 8.8 13.2119 8.4416 13.2119 8C13.2119 7.5584 12.8796 7.2 12.4694 7.2C12.0584 7.2 11.7261 7.5584 11.7261 8C11.7261 8.4416 12.0584 8.8 12.4694 8.8Z" fill="white"/>
<path fill-rule="evenodd" clip-rule="evenodd" d="M14.5867 12.2C14.6133 12.1989 14.6399 12.2043 14.6641 12.2158C14.6884 12.2274 14.7097 12.2447 14.7263 12.2663C14.7429 12.288 14.7543 12.3134 14.7597 12.3405C14.765 12.3677 14.7641 12.3957 14.7571 12.4224C14.6029 12.992 14.3569 13.4784 13.9629 13.8864C13.3854 14.4864 12.6537 14.7512 11.75 14.8776C10.871 15 9.74912 15 8.33194 15H6.70349C5.2863 15 4.16366 15 3.28543 14.8776C2.38176 14.7512 1.65004 14.4856 1.07253 13.8872C0.495783 13.288 0.239796 12.5288 0.11797 11.5912C9.1916e-08 10.6792 0 9.5152 0 8.0448V7.9552C0 6.4848 9.1916e-08 5.32 0.11797 4.408C0.239796 3.4704 0.495783 2.7112 1.07253 2.112C1.65004 1.5136 2.38176 1.248 3.28543 1.1216C4.16443 1 5.2863 1 6.70349 1H8.33194C9.74912 1 10.8718 1 11.75 1.1224C12.6537 1.2488 13.3854 1.5144 13.9629 2.1128C14.3569 2.5224 14.6029 3.008 14.7571 3.5776C14.7641 3.60429 14.765 3.63234 14.7597 3.65946C14.7543 3.68657 14.7429 3.712 14.7263 3.73366C14.7097 3.75533 14.6884 3.77263 14.6641 3.78416C14.6399 3.79568 14.6133 3.80111 14.5867 3.8H12.6405C10.4531 3.8 8.52547 5.592 8.52547 8C8.52547 10.408 10.4531 12.2 12.6405 12.2H14.5867ZM2.89143 4.2C2.73806 4.2 2.59097 4.26321 2.48252 4.37574C2.37407 4.48826 2.31314 4.64087 2.31314 4.8C2.31314 4.95913 2.37407 5.11174 2.48252 5.22426C2.59097 5.33679 2.73806 5.4 2.89143 5.4H5.97562C6.12899 5.4 6.27608 5.33679 6.38453 5.22426C6.49297 5.11174 6.5539 4.95913 6.5539 4.8C6.5539 4.64087 6.49297 4.48826 6.38453 4.37574C6.27608 4.26321 6.12899 4.2 5.97562 4.2H2.89143Z" fill="white"/>
</svg>
