<svg width="16" height="16" viewBox="0 0 16 16" fill="none" xmlns="http://www.w3.org/2000/svg">
<path d="M2.28571 2.95945H13.7143C13.8478 2.95939 13.9812 2.96769 14.1136 2.9843C14.0687 2.67551 13.9605 2.37882 13.7954 2.11213C13.6304 1.84543 13.4119 1.61426 13.1533 1.43254C12.8946 1.25082 12.601 1.12232 12.2903 1.05479C11.9796 0.987262 11.6582 0.982098 11.3454 1.03961L1.94643 2.61223H1.93571C1.34574 2.7228 0.821094 3.04994 0.468929 3.52682C0.999498 3.15697 1.63462 2.95862 2.28571 2.95945ZM13.7143 3.79949H2.28571C1.67971 3.80014 1.09871 4.03635 0.670201 4.45631C0.24169 4.87627 0.000661734 5.44568 0 6.03959V12.7599C0.000661734 13.3538 0.24169 13.9232 0.670201 14.3432C1.09871 14.7631 1.67971 14.9994 2.28571 15H13.7143C14.3203 14.9994 14.9013 14.7631 15.3298 14.3432C15.7583 13.9232 15.9993 13.3538 16 12.7599V6.03959C15.9993 5.44568 15.7583 4.87627 15.3298 4.45631C14.9013 4.03635 14.3203 3.80014 13.7143 3.79949ZM12.0179 10.5198C11.7918 10.5198 11.5709 10.4541 11.3829 10.331C11.195 10.208 11.0485 10.033 10.962 9.82837C10.8755 9.62371 10.8529 9.3985 10.897 9.18123C10.9411 8.96396 11.0499 8.76439 11.2097 8.60775C11.3696 8.45111 11.5732 8.34443 11.7949 8.30121C12.0166 8.258 12.2464 8.28018 12.4552 8.36495C12.664 8.44973 12.8425 8.59328 12.9681 8.77748C13.0937 8.96167 13.1607 9.17822 13.1607 9.39974C13.1607 9.6968 13.0403 9.98169 12.826 10.1917C12.6117 10.4018 12.321 10.5198 12.0179 10.5198Z" fill="white"/>
<path d="M0.0178833 8.4022V4.91954C0.0178833 4.16106 0.446455 2.88945 1.93395 2.61399C3.19645 2.38193 4.44645 2.38193 4.44645 2.38193C4.44645 2.38193 5.26788 2.94195 4.58931 2.94195C3.91074 2.94195 3.9286 3.79949 4.58931 3.79949C5.25003 3.79949 4.58931 4.62203 4.58931 4.62203L1.9286 7.57967L0.0178833 8.4022Z" fill="white"/>
</svg>
