<svg width="16" height="16" viewBox="0 0 16 16" fill="none" xmlns="http://www.w3.org/2000/svg">
<path d="M3.40663 9.73334L2.7733 12.4667C2.75145 12.5666 2.7522 12.6701 2.77549 12.7697C2.79878 12.8693 2.84402 12.9624 2.90792 13.0423C2.97181 13.1222 3.05274 13.1868 3.14479 13.2313C3.23684 13.2759 3.33768 13.2994 3.43996 13.3C3.48762 13.3048 3.53564 13.3048 3.5833 13.3L6.3333 12.6667L11.6133 7.40667L8.66663 4.46667L3.40663 9.73334Z" fill="#434343"/>
<path d="M13.2733 4.7733L11.3067 2.80664C11.1774 2.67799 11.0024 2.60577 10.82 2.60577C10.6376 2.60577 10.4626 2.67799 10.3333 2.80664L9.23999 3.89997L12.1833 6.8433L13.2767 5.74997C13.3406 5.68566 13.3913 5.60937 13.4258 5.52546C13.4602 5.44155 13.4778 5.35166 13.4775 5.26095C13.4772 5.17023 13.459 5.08047 13.424 4.99679C13.3889 4.91312 13.3377 4.83717 13.2733 4.7733Z" fill="#434343"/>
</svg>
